<?xml version="1.0" standalone="no"?><svg xmlns="http://www.w3.org/2000/svg" viewBox="0 0 1440 320"><path fill="#273036" fill-opacity="1" d="M0,96L30,122.7C60,149,120,203,180,240C240,277,300,299,360,309.3C420,320,480,320,540,293.3C600,267,660,213,720,176C780,139,840,117,900,117.3C960,117,1020,139,1080,144C1140,149,1200,139,1260,149.3C1320,160,1380,192,1410,208L1440,224L1440,320L1410,320C1380,320,1320,320,1260,320C1200,320,1140,320,1080,320C1020,320,960,320,900,320C840,320,780,320,720,320C660,320,600,320,540,320C480,320,420,320,360,320C300,320,240,320,180,320C120,320,60,320,30,320L0,320Z"></path></svg>